<svg width="16" height="16" viewBox="0 0 16 16" fill="none" xmlns="http://www.w3.org/2000/svg">
<path d="M12.3654 1.3335H6.30156C5.0327 1.3335 4.00016 2.36603 4.00016 3.6349V4.00016H3.6349C2.36603 4.00016 1.3335 5.0327 1.3335 6.30156V12.3654C1.3335 13.6343 2.36603 14.6668 3.6349 14.6668H9.6987C10.8644 14.6668 11.8202 13.7923 11.9696 12.6668H12.3654C13.6343 12.6668 14.6668 11.6343 14.6668 10.3654V3.6349C14.6668 2.36603 13.6343 1.3335 12.3654 1.3335ZM13.3335 10.3654C13.3335 10.8992 12.8992 11.3335 12.3654 11.3335H12.0002V6.30156C12.0002 5.0327 10.9676 4.00016 9.69876 4.00016H5.3335V3.6349C5.3335 3.1011 5.76776 2.66683 6.30156 2.66683H12.3654C12.8992 2.66683 13.3335 3.1011 13.3335 3.6349V10.3654Z" fill="#BBC2D4"/>
</svg>
