<svg width="16" height="17" viewBox="0 0 16 17" fill="none" xmlns="http://www.w3.org/2000/svg">
<path d="M8.00004 15.1666C9.31858 15.1666 10.6075 14.7756 11.7038 14.043C12.8002 13.3105 13.6547 12.2693 14.1592 11.0511C14.6638 9.83297 14.7958 8.49253 14.5386 7.19932C14.2814 5.90611 13.6464 4.71823 12.7141 3.78588C11.7817 2.85353 10.5938 2.21859 9.30064 1.96135C8.00743 1.70412 6.66699 1.83614 5.44882 2.34072C4.23064 2.84531 3.18945 3.69979 2.45691 4.79612C1.72437 5.89245 1.33337 7.18138 1.33337 8.49992C1.33529 10.2674 2.03828 11.962 3.28811 13.2119C4.53793 14.4617 6.23252 15.1647 8.00004 15.1666ZM8.00004 4.61103C8.16486 4.61103 8.32597 4.65991 8.46301 4.75147C8.60006 4.84304 8.70687 4.97319 8.76994 5.12546C8.83301 5.27773 8.84951 5.44529 8.81736 5.60694C8.78521 5.76859 8.70584 5.91708 8.5893 6.03362C8.47275 6.15016 8.32427 6.22953 8.16261 6.26169C8.00096 6.29384 7.83341 6.27734 7.68114 6.21426C7.52886 6.15119 7.39872 6.04438 7.30715 5.90734C7.21558 5.7703 7.16671 5.60918 7.16671 5.44437C7.16671 5.22335 7.2545 5.01139 7.41078 4.85511C7.56706 4.69883 7.77903 4.61103 8.00004 4.61103ZM7.44448 7.38881H8.00004C8.29472 7.38881 8.57734 7.50587 8.78571 7.71425C8.99409 7.92262 9.11115 8.20524 9.11115 8.49992V11.8333C9.11115 11.9806 9.05262 12.1219 8.94843 12.2261C8.84424 12.3303 8.70294 12.3888 8.55559 12.3888C8.40825 12.3888 8.26694 12.3303 8.16276 12.2261C8.05857 12.1219 8.00004 11.9806 8.00004 11.8333V8.49992H7.44448C7.29714 8.49992 7.15583 8.44139 7.05165 8.3372C6.94746 8.23302 6.88893 8.09171 6.88893 7.94437C6.88893 7.79702 6.94746 7.65571 7.05165 7.55153C7.15583 7.44734 7.29714 7.38881 7.44448 7.38881Z" fill="#BBC2D4"/>
</svg>
