<svg width="28" height="28" viewBox="0 0 18 18" fill="none" xmlns="http://www.w3.org/2000/svg">
<path fill-rule="evenodd" clip-rule="evenodd" d="M9.00008 0.666687C9.46032 0.666687 9.83342 1.03978 9.83342 1.50002V4.00002C9.83342 4.46026 9.46032 4.83335 9.00008 4.83335C8.53984 4.83335 8.16675 4.46026 8.16675 4.00002V1.50002C8.16675 1.03978 8.53984 0.666687 9.00008 0.666687Z" fill="#fff"/>
<path fill-rule="evenodd" clip-rule="evenodd" d="M13.1667 9.00002C13.1667 8.53978 13.5398 8.16669 14.0001 8.16669H16.5001C16.9603 8.16669 17.3334 8.53978 17.3334 9.00002C17.3334 9.46026 16.9603 9.83335 16.5001 9.83335H14.0001C13.5398 9.83335 13.1667 9.46026 13.1667 9.00002Z" fill="#fff"/>
<path fill-rule="evenodd" clip-rule="evenodd" d="M9.00008 17.3334C8.53984 17.3334 8.16675 16.9603 8.16675 16.5V14C8.16675 13.5398 8.53984 13.1667 9.00008 13.1667C9.46032 13.1667 9.83342 13.5398 9.83342 14L9.83341 16.5C9.83341 16.9603 9.46032 17.3334 9.00008 17.3334Z" fill="#fff"/>
<path fill-rule="evenodd" clip-rule="evenodd" d="M0.666748 9.00002C0.666748 8.53978 1.03984 8.16669 1.50008 8.16669H4.00008C4.46032 8.16669 4.83341 8.53978 4.83341 9.00002C4.83341 9.46026 4.46032 9.83335 4.00008 9.83335H1.50008C1.03984 9.83335 0.666748 9.46026 0.666748 9.00002Z" fill="#fff"/>
<path fill-rule="evenodd" clip-rule="evenodd" d="M3.1074 3.10746C3.43284 2.78202 3.96048 2.78202 4.28592 3.10746L6.05368 4.87522C6.37912 5.20066 6.37912 5.7283 6.05368 6.05374C5.72825 6.37917 5.20061 6.37917 4.87517 6.05374L3.1074 4.28597C2.78197 3.96053 2.78197 3.4329 3.1074 3.10746Z" fill="#fff"/>
<path fill-rule="evenodd" clip-rule="evenodd" d="M14.8925 3.10746C15.218 3.4329 15.218 3.96053 14.8925 4.28597L13.1248 6.05374C12.7993 6.37917 12.2717 6.37917 11.9462 6.05374C11.6208 5.7283 11.6208 5.20066 11.9462 4.87523L13.714 3.10746C14.0395 2.78202 14.5671 2.78202 14.8925 3.10746Z" fill="#fff"/>
<path fill-rule="evenodd" clip-rule="evenodd" d="M14.8928 14.8926C14.5673 15.218 14.0397 15.218 13.7142 14.8926L11.9465 13.1248C11.621 12.7994 11.621 12.2717 11.9465 11.9463C12.2719 11.6208 12.7996 11.6208 13.125 11.9463L14.8928 13.714C15.2182 14.0395 15.2182 14.5671 14.8928 14.8926Z" fill="#fff"/>
<path fill-rule="evenodd" clip-rule="evenodd" d="M3.10763 14.8926C2.7822 14.5671 2.7822 14.0395 3.10763 13.714L4.8754 11.9463C5.20084 11.6208 5.72847 11.6208 6.05391 11.9463C6.37935 12.2717 6.37935 12.7993 6.05391 13.1248L4.28614 14.8926C3.96071 15.218 3.43307 15.218 3.10763 14.8926Z" fill="#fff"/>
</svg>
