<svg width="20" height="20" viewBox="0 0 20 20" fill="none" xmlns="http://www.w3.org/2000/svg">
<path fill-rule="evenodd" clip-rule="evenodd" d="M10 0.833374C7.42403 0.833374 5.33579 2.8854 5.33579 5.41671C5.33579 7.94801 7.42403 10 10 10C12.576 10 14.6642 7.94801 14.6642 5.41671C14.6642 2.8854 12.576 0.833374 10 0.833374Z" fill="white"/>
<path fill-rule="evenodd" clip-rule="evenodd" d="M7.20148 10.9167C5.6504 10.9167 4.15877 11.612 3.28462 12.6588C2.84096 13.19 2.52908 13.8474 2.50192 14.576C2.47418 15.32 2.74749 16.0462 3.31114 16.6798C4.68481 18.224 6.87803 19.1667 10 19.1667C13.122 19.1667 15.3152 18.224 16.6889 16.6798C17.2525 16.0462 17.5258 15.32 17.4981 14.576C17.4709 13.8474 17.159 13.19 16.7154 12.6588C15.8412 11.612 14.3496 10.9167 12.7985 10.9167H7.20148Z" fill="white"/>
</svg>
